<?xml version="1.0" encoding="utf-8"?>
<!-- Generator: Adobe Illustrator 21.1.0, SVG Export Plug-In . SVG Version: 6.00 Build 0)  -->
<svg version="1.1" id="Layer_1" xmlns="http://www.w3.org/2000/svg" xmlns:xlink="http://www.w3.org/1999/xlink" x="0px" y="0px"
	 viewBox="0 0 300 300" style="enable-background:new 0 0 300 300;" xml:space="preserve">
<style type="text/css">
	.st0{opacity:0.25;fill:url(#shadow_2_);enable-background:new    ;}
	.st1{opacity:0.25;fill:url(#shadow_3_);enable-background:new    ;}
</style>
<g id="Layer_2">
	<g id="Layer_2_1_">
		
			<radialGradient id="shadow_2_" cx="228.1167" cy="5143.4224" r="247.2657" gradientTransform="matrix(0.2722 0 0 8.000000e-02 10.0889 -131.14)" gradientUnits="userSpaceOnUse">
			<stop  offset="0" style="stop-color:#000000"/>
			<stop  offset="1" style="stop-color:#000000;stop-opacity:0"/>
		</radialGradient>
		<ellipse id="shadow" class="st0" cx="72.1" cy="279.1" rx="68.9" ry="19"/>
	</g>
</g>
<path d="M11.3,187.5c0,8.1,1.7,16.7,4.7,24c3.4,7.7,8.1,15,14.6,21.4s14.1,11.1,21.8,14.1c8.1,3,16.7,4.3,24.8,4.3
	s16.7-1.3,24.4-4.7c7.7-3,15.4-7.7,21.4-14.1l27.4-27l27.4,27c6.4,6,13.3,10.7,21.4,14.1c7.7,3,16.3,4.7,24.4,4.7
	c8.6,0,16.7-1.3,24.8-4.3c8.1-3,15.4-7.7,21.8-14.1c6.4-6.4,11.1-13.7,14.6-21.4c3.4-7.7,4.7-15.8,4.7-24s-1.3-16.3-4.7-24
	s-8.1-15-14.6-21c-12.4-12.4-29.1-18.4-45.8-18.4c-8.6,0-16.7,1.3-24.8,4.7c-8.1,3-15.4,7.7-22.3,14.1l-27.4,27l-27.4-27
	c-6.9-6.4-14.6-11.1-22.3-14.1c-8.1-3-16.7-4.7-24.8-4.7c-16.7,0-33.4,6.4-45.8,18.4c-6.4,6.4-11.1,13.3-14.6,21
	C12.6,171.3,11.3,179.4,11.3,187.5z M169.3,187.5l27.4-27c3.9-3.9,8.6-6.4,13.3-8.6c4.7-1.7,9.8-2.6,15-2.6c9.4,0,19.3,3.4,27,11.1
	c3.9,3.4,6.4,8.1,8.6,12.4c1.7,4.3,3,9.4,3,14.1c0,4.7-0.9,9.8-2.6,14.6s-4.7,9-8.6,12.4c-4.7,4.3-8.6,6.9-13.7,8.6
	c-4.7,1.7-9.8,2.6-15,2.6c-4.7,0-9.8-0.9-14.6-2.6c-4.3-1.7-9-4.3-12.8-8.6C196.7,214.5,169.3,187.5,169.3,187.5z M37.9,187.5
	c0-4.7,0.9-9.4,3-14.1c1.7-4.3,4.7-8.6,8.6-12.4c7.7-7.7,17.6-11.1,27-11.1c5.1,0,10.3,0.9,15,2.6c4.7,1.7,9.4,4.3,13.3,8.6l27.4,27
	l-27.4,27c-3.9,3.4-8.1,6.4-12.8,8.6c-4.7,1.7-9.4,2.6-14.6,2.6c-5.1,0-10.3-0.9-15-2.6c-4.7-1.7-9-4.7-12.8-8.6
	c-3.9-3.4-6.4-8.1-8.6-12.4C38.7,197.4,37.9,192.2,37.9,187.5z"/>
<g id="Layer_2_2_">
	<g id="Layer_2_3_">
		
			<radialGradient id="shadow_3_" cx="801.1556" cy="5143.4224" r="247.2657" gradientTransform="matrix(0.2722 0 0 8.000000e-02 10.0889 -131.14)" gradientUnits="userSpaceOnUse">
			<stop  offset="0" style="stop-color:#000000"/>
			<stop  offset="1" style="stop-color:#000000;stop-opacity:0"/>
		</radialGradient>
		<ellipse id="shadow_1_" class="st1" cx="228.1" cy="279.1" rx="68.9" ry="19"/>
	</g>
</g>
</svg>
