<?xml version="1.0" encoding="utf-8"?>
<!-- Generator: Adobe Illustrator 21.1.0, SVG Export Plug-In . SVG Version: 6.00 Build 0)  -->
<svg version="1.1" id="layer" xmlns="http://www.w3.org/2000/svg" xmlns:xlink="http://www.w3.org/1999/xlink" x="0px" y="0px"
	 viewBox="0 0 300 300" style="enable-background:new 0 0 300 300;" xml:space="preserve">
<style type="text/css">
	.st0{opacity:0.3;fill:url(#shadow_1_);}
	.st1{fill:#3A3A3A;}
	.st2{fill:#3D3D3D;}
	.st3{fill:#C5D6EF;}
	.st4{fill:#A6B7CC;}
	.st5{fill:#F2F1C4;}
	.st6{fill:#D8D5B2;}
	.st7{fill:#F7F5DF;}
	.st8{fill:#EAE7D6;}
	.st9{fill:#C5EDC9;}
	.st10{fill:#AECEB0;}
	.st11{fill:#E0DDCE;}
	.st12{fill:#D8D4C0;}
	.st13{fill:#D3D1BC;}
	.st14{fill:#282828;}
	.st15{fill:#EDC5CC;}
	.st16{fill:#D3AFB7;}
</style>
<g id="main-group">
	
		<radialGradient id="shadow_1_" cx="88.9272" cy="279.0001" r="70.6982" gradientTransform="matrix(1.0429 0 0 0.25 42.4301 209.2501)" gradientUnits="userSpaceOnUse">
		<stop  offset="0" style="stop-color:#000000"/>
		<stop  offset="1" style="stop-color:#000000;stop-opacity:0"/>
	</radialGradient>
	<ellipse id="shadow" class="st0" cx="135.2" cy="279" rx="102.1" ry="20.2"/>
	<g id="book-group">
		<polygon id="back-cover" class="st1" points="237.1,195.3 134.5,245.2 44.4,104.6 147,54.8 		"/>
		<polygon id="page_7_" class="st2" points="39.3,112.2 44.4,104.6 134.5,245.2 129.4,252.8 		"/>
		<g id="post-it_1_">
			<polyline class="st3" points="83.6,61.8 112.7,85.9 82.4,122.6 45.7,92.3 69.8,63.2 			"/>
			<polyline class="st4" points="83.6,61.8 79.5,71.2 69.8,63.2 			"/>
		</g>
		<g id="post-it">
			<polyline class="st5" points="196.3,68.4 205,105.2 158.7,116.1 147.8,69.8 184.6,61.1 			"/>
			<polyline class="st6" points="196.3,68.4 187.5,73.4 184.6,61.1 			"/>
		</g>
		<polygon id="page_6_" class="st7" points="232.4,193.1 132.4,242 46.8,108.4 146.7,59.5 		"/>
		<polygon id="page_5_" class="st8" points="231.4,199.5 132.4,242 46.8,108.4 145.8,65.8 		"/>
		<polygon id="page_4_" class="st7" points="226.9,205.3 132.4,242 46.8,108.4 141.2,71.7 		"/>
		<g id="post-it_2_">
			<polyline class="st9" points="143.1,72.4 157.5,107.4 113.5,125.5 95.4,81.5 130.3,67.1 			"/>
			<polyline class="st10" points="143.1,72.4 135.1,78.8 130.3,67.1 			"/>
		</g>
		<g id="post-it_4_">
			<polyline class="st9" points="232.3,183.4 266.9,196.3 256.8,236.8 213.1,220.5 221.2,188.4 			"/>
			<polyline class="st10" points="232.3,183.4 232.7,192.7 221.2,188.4 			"/>
		</g>
		<polygon id="page_3_" class="st11" points="225.3,210.6 132.4,242 46.8,108.4 139.7,77 		"/>
		<polygon id="page_2_" class="st12" points="224.1,211.4 132.4,242 46.8,108.4 138.5,77.8 		"/>
		<polygon id="page_1_" class="st7" points="218.5,213 132.4,242 46.8,108.4 137.5,84 		"/>
		<polygon id="page" class="st13" points="218.2,217.6 132.4,242 46.8,108.4 137.1,88.6 		"/>
		<polygon id="front-cover" class="st14" points="223.7,231.4 129.4,252.8 39.3,112.2 133.6,90.9 		"/>
		<path id="bookmark" d="M44.2,111.2c0,0,30.8,73.3,31.6,124.3c0,0.8,0,1.6,0,2.4l1,9.2l2.8-0.3l-33-136.4L44.2,111.2z"/>
	</g>
	<g id="outer-post-it_1_">
		<polyline class="st5" points="258.5,110 254.3,137.3 216,153.4 221.3,119 251.7,106.3 		"/>
		<polyline class="st6" points="259.2,111.3 251,116.6 252.4,107.5 		"/>
	</g>
	<g id="outer-post-it">
		<polyline class="st15" points="94.4,26.8 108,0.8 129.6,26.5 112.4,59.3 95.3,38.8 		"/>
		<polyline class="st16" points="94.4,26.8 99.9,30.2 95.3,38.8 		"/>
	</g>
</g>
</svg>
