<?xml version="1.0" encoding="utf-8"?>
<!-- Generator: Adobe Illustrator 21.1.0, SVG Export Plug-In . SVG Version: 6.00 Build 0)  -->
<svg version="1.1" id="Layer_1" xmlns="http://www.w3.org/2000/svg" xmlns:xlink="http://www.w3.org/1999/xlink" x="0px" y="0px"
	 viewBox="0 0 300 300" style="enable-background:new 0 0 300 300;" xml:space="preserve">
<style type="text/css">
	.st0{opacity:0.25;fill:url(#shadow_1_);enable-background:new    ;}
	.st1{fill:#282828;stroke:#1A1A1A;stroke-width:1.3543;stroke-miterlimit:10;}
	.st2{fill:#F2F2F2;}
	.st3{fill:#CCCCCC;}
	.st4{fill:#E8E8E8;}
	.st5{fill:#E6E6E6;}
	.st6{fill:none;}
</style>
<g id="Layer_2">
	<g id="Layer_2_1_">
		<g id="wireframe">
			
				<radialGradient id="shadow_1_" cx="115.8753" cy="-1533.9221" r="247.2657" gradientTransform="matrix(0.58 0 0 -8.000000e-02 83.09 157.62)" gradientUnits="userSpaceOnUse">
				<stop  offset="0" style="stop-color:#000000"/>
				<stop  offset="1" style="stop-color:#000000;stop-opacity:0"/>
			</radialGradient>
			<ellipse id="shadow" class="st0" cx="150" cy="279.1" rx="146.9" ry="19"/>
			<g id="screen">
				<polygon class="st1" points="296.9,245.3 4.3,245.3 24.6,76 276.5,76 				"/>
				<polygon class="st2" points="290.1,238.5 11.1,238.5 30.5,82.8 270.7,82.8 				"/>
				<polygon class="st3" points="147.9,145.8 30.1,145.8 36.7,89.5 147.9,89.8 				"/>
				<polygon class="st4" points="153.3,145.8 271.1,145.8 264.5,89.5 153.3,89.8 				"/>
				<polygon class="st3" points="279.1,211 282,233.6 20.6,233.6 23.1,211.1 				"/>
				<polygon class="st5" points="273.1,161.4 271.7,150 29.8,150.1 28.8,161.5 				"/>
				<polyline class="st3" points="85.8,164.9 147.9,164.9 147.9,168.3 147.9,207.2 85.8,207.2 				"/>
				<polygon class="st5" points="82,207.2 23.7,207.2 28.4,164.9 82,164.9 82,168.3 				"/>
				<polygon class="st5" points="278.6,207.2 153.3,207.2 153.3,165 273.5,165 273.9,168.2 				"/>
				<line id="right-guide" class="st6" x1="282" y1="232.2" x2="264.5" y2="88.2"/>
				<line id="left-guide" class="st6" x1="21.2" y1="227.5" x2="37.3" y2="83.4"/>
			</g>
		</g>
	</g>
</g>
</svg>
